<?xml version="1.0" encoding="UTF-8"?>
<!DOCTYPE svg PUBLIC "-//W3C//DTD SVG 1.1//EN" "http://www.w3.org/Graphics/SVG/1.1/DTD/svg11.dtd">
<!-- Creator: CorelDRAW 2018 (64 Bit) -->
<svg xmlns="http://www.w3.org/2000/svg" xml:space="preserve" width="297mm" height="210mm" version="1.1" style="shape-rendering:geometricPrecision; text-rendering:geometricPrecision; image-rendering:optimizeQuality; fill-rule:evenodd; clip-rule:evenodd"
viewBox="0 0 29700 21000"
 xmlns:xlink="http://www.w3.org/1999/xlink">
 <defs>
  <style type="text/css">
   <![CDATA[
    .fil0 {fill:#E53D22}
    .fil1 {fill:white}
    .fil2 {fill:white;fill-rule:nonzero}
   ]]>
  </style>
 </defs>
 <g id="Camada_x0020_1">
  <metadata id="CorelCorpID_0Corel-Layer"/>
  <rect class="fil0" width="29700" height="21000"/>
  <g id="_1841290921776">
   <polygon class="fil1" points="4293.27,8900.38 8226.8,8900.38 8226.8,9736.83 5366.27,9736.82 5366.26,10241.7 8080.31,10241.7 8080.31,11028.15 5366.26,11028.15 5366.27,11591.01 8226.8,11591.01 8226.8,12446.86 4293.27,12446.86 "/>
   <polygon class="fil1" points="21473.2,8900.38 25406.73,8900.38 25406.73,9736.83 22546.19,9736.82 22546.19,10241.7 25260.24,10241.7 25260.24,11028.15 22546.19,11028.15 22546.19,11591.01 25406.73,11591.01 25406.73,12446.86 21473.2,12446.86 "/>
   <path class="fil1" d="M12960.97 4844.46l-223.61 0 2374.8 5081.12 -1614.47 0c-415.49,0 -690.94,416.35 -495.57,770.48l3875.7 5459.48 262.15 0 -2374.78 -5073.41c554.53,0 1042.33,0 1596.86,0 415.54,-26.98 708.53,-454.91 455.08,-797.01l-3856.16 -5440.66z"/>
   <path class="fil1" d="M19948.61 8900.38l-3595.09 0 0 258.16 685.01 966.49c121.5,165.34 172.35,366.4 133.03,568.9 -72.83,375.11 -419.56,636.66 -791.8,660.83 -6.21,0.4 -11.5,0.57 -17.71,0.57 -2.84,0 -5.69,0 -8.53,0l0 1091.53 3595.09 0c601.05,0 1092.8,-491.75 1092.8,-1092.8l0 -1360.89c0,-601.04 -491.75,-1092.79 -1092.8,-1092.79zm-2523.35 894.12l2082.43 0c260.46,0 473.55,213.1 473.55,473.55l0 803.15c0,260.45 -213.09,473.55 -473.55,473.55l-2082.43 0 0 -1750.25z"/>
   <path class="fil1" d="M13539.24 9652.37l0 -751.99 -1087.16 -0.01 -0.01 2644.38 -100.22 0 -1865.91 -2644.37 -1904.46 0 0 3546.48 1087.16 0 -0.01 -2652.36 115.67 0 1858.2 2652.36 1896.74 0 0 -522.22 -759.9 -1070.43c-6.27,-8.85 -11.2,-16.69 -16.44,-26.18 -302.86,-548.98 128.63,-1175.66 734.79,-1175.66l41.55 0z"/>
  </g>
  <polygon class="fil2" points="4612.84,13785.95 4612.84,13683.17 4403.27,13683.17 4403.27,13542.66 4604.01,13542.66 4604.01,13439.88 4403.27,13439.88 4403.27,13294.55 4612.84,13294.55 4612.84,13191.77 4293.27,13191.77 4293.27,13785.95 "/>
  <path id="1" class="fil2" d="M5374.03 13785.95l0 -260.15c0,-44.16 -7.23,-94.75 -33.73,-131.68 -34.52,-47.38 -89.92,-69.06 -146.93,-69.06 -59.42,0 -108.4,19.27 -143.73,69.86 -28.91,-44.97 -75.48,-69.86 -128.47,-69.86 -43.36,0 -92.34,13.65 -116.43,53l-1.6 0 0 -37.74 -97.96 0 0 445.63 106.79 0 0 -222.41c0,-60.22 4.82,-140.52 85.11,-140.52 67.45,0 89.13,57.01 89.13,115.62l0 247.31 106.79 0 0 -230.44c0,-28.11 0.8,-65.84 16.06,-90.74 15.25,-25.69 44.16,-41.75 73.87,-41.75 69.05,0 84.31,58.62 84.31,115.62l0 247.31 106.79 0z"/>
  <path id="2" class="fil2" d="M5921.63 13561.13c0,-126.87 -92.34,-236.07 -223.22,-236.07 -58.61,0 -107.59,20.88 -144.53,67.45l-1.6 0 0 -52.19 -97.96 0 0 594.17 106.79 0 0 -191.1c41.75,40.15 77.88,57.01 137.3,57.01 130.88,0 223.22,-113.21 223.22,-239.27l0 0zm-106.79 1.6c0,72.27 -54.6,139.71 -130.08,139.71 -18.47,0 -36.13,-4.81 -52.19,-12.84 -51.39,-23.29 -77.88,-71.46 -77.88,-126.87 0,-74.67 54.6,-139.71 131.68,-139.71 75.47,0 128.47,68.25 128.47,139.71l0 0z"/>
  <path id="3" class="fil2" d="M6201.05 13428.64l0 -103.58c-52.99,0 -74.67,11.24 -104.38,54.6l-1.61 0 0 -39.34 -97.95 0 0 445.63 106.79 0 0 -250.52c0,-65.04 27.3,-104.38 97.15,-106.79z"/>
  <path id="4" class="fil2" d="M6671.57 13557.11c0,-129.27 -100.36,-232.05 -230.44,-232.05 -134.89,0 -234.46,105.99 -234.46,239.28 0,132.48 101.97,236.06 235.26,236.06 94.75,0 186.28,-64.23 215.19,-154.96l-112.41 0c-21.68,39.34 -59.42,57 -102.78,57 -44.16,0 -84.31,-22.48 -108.39,-59.41 -6.43,-9.64 -12.05,-20.08 -14.46,-32.12l346.07 0c4.01,-17.67 6.42,-36.13 6.42,-53.8zm-109.2 -32.12l-246.5 0c15.26,-63.43 61.02,-101.97 126.06,-101.97 65.04,0 110.01,37.74 120.44,101.97z"/>
  <path id="5" class="fil2" d="M7033.7 13644.63c0,-82.7 -55.41,-111.61 -124.46,-133.29 -12.84,-4.01 -25.69,-8.02 -38.54,-12.84 -18.47,-7.23 -36.93,-13.65 -36.93,-36.94 0,-22.48 18.46,-38.54 40.95,-38.54 24.08,0 37.73,15.26 42.55,38.54l104.38 0c-3.21,-77.88 -67.44,-136.5 -145.33,-136.5 -77.88,0 -149.35,57.01 -149.35,138.11 0,65.84 40.15,106.79 99.57,127.67 22.48,8.02 79.49,23.28 93.94,43.35 4.82,7.23 6.43,15.26 6.43,23.29 0,27.3 -22.49,44.96 -48.18,44.96 -36.93,0 -51.39,-24.89 -58.61,-57l-109.2 0c3.21,36.93 10.43,66.64 33.72,96.35 31.31,39.34 83.51,58.61 133.29,58.61 88.32,0 155.77,-67.44 155.77,-155.77l0 0z"/>
  <path id="6" class="fil2" d="M7541.15 13785.95l0 -445.63 -97.96 0 0 56.2 -1.6 0c-4.02,-6.42 -11.24,-13.65 -16.06,-18.46 -36.13,-32.92 -82.7,-53 -131.68,-53 -131.69,0 -223.22,107.6 -223.22,235.26 0,126.87 82.7,240.08 216.79,240.08 54.6,0 120.44,-28.1 155.77,-69.85l0 55.4 97.96 0zm-101.17 -224.02c0,76.28 -50.58,140.51 -130.07,140.51 -76.28,0 -132.49,-62.63 -132.49,-137.3 0,-76.28 52.99,-142.12 132.49,-142.12 78.68,0 130.07,62.63 130.07,138.91l0 0z"/>
  <polygon id="7" class="fil2" points="8342.48,13785.95 8342.48,13191.77 8232.48,13191.77 8232.48,13623.76 8230.87,13623.76 7985.17,13191.77 7859.92,13191.77 7859.92,13785.95 7969.92,13785.95 7969.92,13353.97 7971.52,13353.97 8219.63,13785.95 "/>
  <path id="8" class="fil2" d="M8890.09 13785.95l0 -445.63 -97.96 0 0 56.2 -1.6 0c-4.02,-6.42 -11.24,-13.65 -16.06,-18.46 -36.13,-32.92 -82.7,-53 -131.68,-53 -131.69,0 -223.22,107.6 -223.22,235.26 0,126.87 82.7,240.08 216.79,240.08 54.6,0 120.44,-28.1 155.77,-69.85l0 55.4 97.96 0zm-101.17 -224.02c0,76.28 -50.58,140.51 -130.07,140.51 -76.28,0 -132.49,-62.63 -132.49,-137.3 0,-76.28 52.99,-142.12 132.49,-142.12 78.68,0 130.07,62.63 130.07,138.91l0 0z"/>
  <path id="9" class="fil2" d="M9417.62 13640.62l-120.44 0c-22.48,36.13 -55.4,61.82 -98.76,61.82 -79.49,0 -134.09,-62.63 -134.09,-139.71 0,-76.28 49.78,-139.71 129.27,-139.71 49.79,0 80.3,23.29 103.58,65.04l120.44 0c-32.92,-98.76 -119.63,-163 -224.02,-163 -130.07,0 -236.06,105.99 -236.06,236.07 0,130.88 105.18,239.27 236.87,239.27 105.18,0 187.88,-61.82 223.21,-159.78z"/>
  <path id="10" class="fil2" d="M9591.06 13289.73l0 -97.96 -106.79 0 0 97.96 106.79 0zm0 496.22l0 -445.63 -106.79 0 0 445.63 106.79 0z"/>
  <path id="11" class="fil2" d="M10128.23 13561.93c0,-130.88 -104.38,-236.87 -236.07,-236.87 -131.68,0 -237.67,107.6 -237.67,238.48 0,130.07 107.6,236.86 237.67,236.86 134.9,0 236.07,-103.58 236.07,-238.47zm-106.79 2.41c0,73.07 -53.8,138.1 -129.28,138.1 -77.08,0 -130.88,-64.23 -130.88,-138.9 0,-72.27 55.41,-140.52 130.88,-140.52 75.48,0 129.28,69.86 129.28,141.32z"/>
  <path id="12" class="fil2" d="M10587.51 13785.95l0 -247.31c0,-52.19 -6.43,-110 -40.95,-151.75 -31.32,-37.74 -85.11,-61.83 -134.09,-61.83 -51.39,0 -86.72,19.27 -122.05,53.8l0 -38.54 -98.76 0 0 445.63 106.79 0 0 -211.98c0,-32.92 0,-83.5 19.27,-111.6 16.06,-23.29 44.96,-39.35 73.07,-39.35 79.49,0 89.93,81.1 89.93,142.92l0 220.01 106.79 0z"/>
  <path id="13" class="fil2" d="M11122.26 13785.95l0 -445.63 -97.96 0 0 56.2 -1.6 0c-4.02,-6.42 -11.24,-13.65 -16.06,-18.46 -36.13,-32.92 -82.7,-53 -131.68,-53 -131.69,0 -223.22,107.6 -223.22,235.26 0,126.87 82.7,240.08 216.79,240.08 54.6,0 120.44,-28.1 155.77,-69.85l0 55.4 97.96 0zm-101.17 -224.02c0,76.28 -50.58,140.51 -130.07,140.51 -76.28,0 -132.49,-62.63 -132.49,-137.3 0,-76.28 52.99,-142.12 132.49,-142.12 78.68,0 130.07,62.63 130.07,138.91l0 0z"/>
  <polygon id="14" class="fil2" points="11310.15,13785.95 11310.15,13191.77 11203.36,13191.77 11203.36,13785.95 "/>
  <path id="15" class="fil2" d="M12073.75 13785.95l0 -594.18 -106.79 0 0 187.89c-37.74,-40.14 -80.3,-54.6 -134.9,-54.6 -30.51,0 -60.22,7.23 -87.52,19.27 -88.32,39.35 -139.71,123.66 -139.71,219.21 0,126.86 97.16,236.86 227.23,236.86 54.6,0 112.41,-21.68 142.12,-69.05l1.61 0 0 54.6 97.96 0zm-98.76 -223.22c0,73.07 -56.21,139.71 -131.69,139.71 -77.88,0 -131.68,-69.05 -131.68,-142.92 0,-70.66 59.42,-136.5 131.68,-136.5 75.48,0 131.69,66.65 131.69,139.71l0 0z"/>
  <path id="16" class="fil2" d="M12597.26 13557.11c0,-129.27 -100.36,-232.05 -230.44,-232.05 -134.89,0 -234.46,105.99 -234.46,239.28 0,132.48 101.97,236.06 235.26,236.06 94.75,0 186.28,-64.23 215.19,-154.96l-112.41 0c-21.68,39.34 -59.42,57 -102.78,57 -44.16,0 -84.31,-22.48 -108.39,-59.41 -6.43,-9.64 -12.05,-20.08 -14.46,-32.12l346.07 0c4.01,-17.67 6.42,-36.13 6.42,-53.8zm-109.2 -32.12l-246.5 0c15.26,-63.43 61.02,-101.97 126.06,-101.97 65.04,0 110.01,37.74 120.44,101.97z"/>
  <path id="17" class="fil2" d="M4771.82 14511.81c0,-84.31 -34.52,-173.44 -97.96,-229.64 -65.04,-57.01 -161.39,-69.06 -244.09,-69.06l-134.89 0 0 594.18 137.3 0c64.23,0 140.51,-7.23 197.52,-38.54 90.73,-49.78 142.12,-155.77 142.12,-256.94zm-110 0c0,65.04 -31.32,131.68 -89.13,163.8 -47.37,26.49 -91.53,28.9 -144.53,28.9l-23.28 0 0 -388.62c69.85,0 138.1,0.8 193.51,49.78 40.95,36.14 63.43,92.34 63.43,146.14z"/>
  <path id="18" class="fil2" d="M4955.7 14311.07l0 -97.96 -106.79 0 0 97.96 106.79 0zm0 496.22l0 -445.63 -106.79 0 0 445.63 106.79 0z"/>
  <path id="19" class="fil2" d="M5337.1 14665.97c0,-82.7 -55.41,-111.61 -124.46,-133.29 -12.84,-4.01 -25.69,-8.02 -38.54,-12.84 -18.47,-7.23 -36.93,-13.65 -36.93,-36.94 0,-22.48 18.46,-38.54 40.95,-38.54 24.08,0 37.73,15.26 42.55,38.54l104.38 0c-3.21,-77.88 -67.44,-136.5 -145.33,-136.5 -77.88,0 -149.35,57.01 -149.35,138.11 0,65.84 40.15,106.79 99.57,127.67 22.48,8.02 79.49,23.28 93.94,43.35 4.82,7.23 6.43,15.26 6.43,23.29 0,27.3 -22.49,44.96 -48.18,44.96 -36.93,0 -51.39,-24.89 -58.61,-57l-109.2 0c3.21,36.93 10.43,66.64 33.72,96.35 31.31,39.34 83.51,58.61 133.29,58.61 88.32,0 155.77,-67.44 155.77,-155.77l0 0z"/>
  <polygon id="20" class="fil2" points="5592.43,14456.41 5592.43,14361.66 5528.19,14361.66 5528.19,14213.11 5421.4,14213.11 5421.4,14361.66 5369.21,14361.66 5369.21,14456.41 5421.4,14456.41 5421.4,14807.29 5528.19,14807.29 5528.19,14456.41 "/>
  <path id="21" class="fil2" d="M5847.76 14449.98l0 -103.58c-52.99,0 -74.67,11.24 -104.38,54.6l-1.61 0 0 -39.34 -97.95 0 0 445.63 106.79 0 0 -250.52c0,-65.04 27.3,-104.38 97.15,-106.79z"/>
  <path id="22" class="fil2" d="M5999.52 14311.07l0 -97.96 -106.79 0 0 97.96 106.79 0zm0 496.22l0 -445.63 -106.79 0 0 445.63 106.79 0z"/>
  <path id="23" class="fil2" d="M6550.34 14582.47c0,-125.26 -94.75,-236.07 -224.02,-236.07 -51.39,0 -102.78,19.27 -138.91,55.41l0 -188.7 -106.79 0 0 594.18 97.96 0 0 -53.8c42.55,48.18 85.11,68.25 150.15,68.25 96.35,0 167.81,-53.79 202.34,-142.12 12.04,-30.51 19.27,-64.23 19.27,-97.15l0 0zm-106.79 0.8c0,76.28 -48.98,140.51 -128.47,140.51 -81.9,0 -134.09,-66.64 -134.09,-145.33 0,-73.07 58.61,-134.09 132.48,-134.09 77.89,0 130.08,63.43 130.08,138.91z"/>
  <path id="24" class="fil2" d="M7009.62 14807.29l0 -445.63 -106.79 0 0 228.03c0,59.42 -16.06,134.09 -89.93,134.09 -80.29,0 -93.14,-70.65 -93.14,-134.89l0 -227.23 -106.79 0 0 236.06c0,52.19 2.41,109.2 32.92,153.36 32.92,48.18 92.34,70.66 149.34,70.66 51.39,0 85.12,-18.46 114.82,-59.41l1.61 0 0 44.96 97.96 0z"/>
  <path id="25" class="fil2" d="M7203.93 14311.07l0 -97.96 -106.79 0 0 97.96 106.79 0zm0 496.22l0 -445.63 -106.79 0 0 445.63 106.79 0z"/>
  <path id="26" class="fil2" d="M7737.08 14661.96l-120.44 0c-22.48,36.13 -54.6,61.82 -98.76,61.82 -79.49,0 -134.09,-62.63 -134.09,-139.71 0,-76.28 49.78,-139.71 129.27,-139.71 50.59,0 80.3,23.29 103.58,65.04l120.44 0c-32.92,-98.76 -119.63,-163 -224.02,-163 -130.07,0 -236.06,105.99 -236.06,236.07 0,115.62 80.29,212.78 193.51,234.46l-32.92 75.47 39.34 15.26c7.23,-12.85 20.07,-17.67 34.53,-17.67 21.68,0 37.74,19.27 37.74,40.15 0,21.68 -14.46,38.54 -36.94,38.54 -18.47,0 -34.53,-11.24 -37.74,-29.71l-42.55 0c0.8,40.95 42.55,69.86 80.29,69.86 47.37,0 80.29,-30.51 80.29,-78.69 0,-44.16 -28.9,-80.29 -74.67,-80.29 -6.42,0 -13.65,0.8 -20.07,1.6l13.65 -29.71c106.79,0 189.49,-59.41 225.62,-159.78z"/>
  <path id="27" class="fil2" d="M8253.37 14807.29l0 -445.63 -97.96 0 0 56.2 -1.6 0c-4.02,-6.42 -11.24,-13.65 -16.06,-18.46 -36.13,-32.92 -82.7,-53 -131.68,-53 -131.69,0 -223.22,107.6 -223.22,235.26 0,126.87 82.7,240.08 216.79,240.08 54.6,0 120.44,-28.1 155.77,-69.85l0 55.4 97.96 0zm-101.17 -224.02c0,76.28 -50.58,140.51 -130.07,140.51 -76.28,0 -132.49,-62.63 -132.49,-137.3 0,-76.28 52.99,-142.12 132.49,-142.12 78.68,0 130.07,62.63 130.07,138.91l0 0zm32.12 -324.39l-43.36 -62.63c-18.47,12.05 -38.54,18.47 -61.02,18.47 -40.15,0 -77.09,-23.28 -118.03,-23.28 -33.73,0 -66.65,14.45 -93.15,34.52l43.36 65.04c20.88,-10.44 40.15,-16.06 64.24,-16.06 40.14,0 76.28,21.68 116.42,21.68 36.94,0 63.44,-15.26 91.54,-37.74z"/>
  <path id="28" class="fil2" d="M8784.92 14583.27c0,-130.88 -104.38,-236.87 -236.07,-236.87 -131.68,0 -237.67,107.6 -237.67,238.48 0,130.07 107.6,236.86 237.67,236.86 134.9,0 236.07,-103.58 236.07,-238.47zm-106.79 2.41c0,73.07 -53.8,138.1 -129.28,138.1 -77.08,0 -130.88,-64.23 -130.88,-138.9 0,-72.27 55.41,-140.52 130.88,-140.52 75.48,0 129.28,69.86 129.28,141.32z"/>
  <path id="29" class="fil2" d="M9526.03 14807.29l0 -594.18 -106.79 0 0 187.89c-37.74,-40.14 -80.3,-54.6 -134.9,-54.6 -30.51,0 -60.22,7.23 -87.52,19.27 -88.32,39.35 -139.71,123.66 -139.71,219.21 0,126.86 97.16,236.86 227.23,236.86 54.6,0 112.41,-21.68 142.12,-69.05l1.61 0 0 54.6 97.96 0zm-98.76 -223.22c0,73.07 -56.21,139.71 -131.69,139.71 -77.88,0 -131.68,-69.05 -131.68,-142.92 0,-70.66 59.42,-136.5 131.68,-136.5 75.48,0 131.69,66.65 131.69,139.71l0 0z"/>
  <path id="30" class="fil2" d="M10049.54 14578.45c0,-129.27 -100.36,-232.05 -230.44,-232.05 -134.89,0 -234.46,105.99 -234.46,239.28 0,132.48 101.97,236.06 235.26,236.06 94.75,0 186.28,-64.23 215.19,-154.96l-112.41 0c-21.68,39.34 -59.42,57 -102.78,57 -44.16,0 -84.31,-22.48 -108.39,-59.41 -6.43,-9.64 -12.05,-20.08 -14.46,-32.12l346.07 0c4.01,-17.67 6.42,-36.13 6.42,-53.8zm-109.2 -32.12l-246.5 0c15.26,-63.43 61.02,-101.97 126.06,-101.97 65.04,0 110.01,37.74 120.44,101.97z"/>
  <polygon id="31" class="fil2" points="10667,14807.29 10667,14704.51 10457.43,14704.51 10457.43,14564 10658.17,14564 10658.17,14461.22 10457.43,14461.22 10457.43,14315.89 10667,14315.89 10667,14213.11 10347.43,14213.11 10347.43,14807.29 "/>
  <polygon id="32" class="fil2" points="10866.13,14807.29 10866.13,14213.11 10759.34,14213.11 10759.34,14807.29 "/>
  <path id="33" class="fil2" d="M11398.48 14578.45c0,-129.27 -100.36,-232.05 -230.44,-232.05 -134.89,0 -234.46,105.99 -234.46,239.28 0,132.48 101.97,236.06 235.26,236.06 94.75,0 186.28,-64.23 215.19,-154.96l-112.41 0c-21.68,39.34 -59.42,57 -102.78,57 -44.16,0 -84.31,-22.48 -108.39,-59.41 -6.43,-9.64 -12.05,-20.08 -14.46,-32.12l346.07 0c4.01,-17.67 6.42,-36.13 6.42,-53.8zm-109.2 -32.12l-246.5 0c15.26,-63.43 61.02,-101.97 126.06,-101.97 65.04,0 110.01,37.74 120.44,101.97z"/>
  <path id="34" class="fil2" d="M11912.36 14661.96l-120.44 0c-22.48,36.13 -55.4,61.82 -98.76,61.82 -79.49,0 -134.09,-62.63 -134.09,-139.71 0,-76.28 49.78,-139.71 129.27,-139.71 49.79,0 80.3,23.29 103.58,65.04l120.44 0c-32.92,-98.76 -119.63,-163 -224.02,-163 -130.07,0 -236.06,105.99 -236.06,236.07 0,130.88 105.18,239.27 236.87,239.27 105.18,0 187.88,-61.82 223.21,-159.78z"/>
  <polygon id="35" class="fil2" points="12176.53,14456.41 12176.53,14361.66 12112.29,14361.66 12112.29,14213.11 12005.5,14213.11 12005.5,14361.66 11953.31,14361.66 11953.31,14456.41 12005.5,14456.41 12005.5,14807.29 12112.29,14807.29 12112.29,14456.41 "/>
  <path id="36" class="fil2" d="M12431.86 14449.98l0 -103.58c-52.99,0 -74.67,11.24 -104.38,54.6l-1.61 0 0 -39.34 -97.95 0 0 445.63 106.79 0 0 -250.52c0,-65.04 27.3,-104.38 97.15,-106.79z"/>
  <path id="37" class="fil2" d="M12583.62 14311.07l0 -97.96 -106.79 0 0 97.96 106.79 0zm0 496.22l0 -445.63 -106.79 0 0 445.63 106.79 0z"/>
  <path id="38" class="fil2" d="M13116.77 14661.96l-120.44 0c-22.48,36.13 -55.4,61.82 -98.76,61.82 -79.49,0 -134.09,-62.63 -134.09,-139.71 0,-76.28 49.78,-139.71 129.27,-139.71 49.79,0 80.3,23.29 103.58,65.04l120.44 0c-32.92,-98.76 -119.63,-163 -224.02,-163 -130.07,0 -236.06,105.99 -236.06,236.07 0,130.88 105.18,239.27 236.87,239.27 105.18,0 187.88,-61.82 223.21,-159.78z"/>
  <path id="39" class="fil2" d="M13290.21 14311.07l0 -97.96 -106.79 0 0 97.96 106.79 0zm0 496.22l0 -445.63 -106.79 0 0 445.63 106.79 0z"/>
  <path id="40" class="fil2" d="M13829.79 14807.29l0 -594.18 -106.79 0 0 187.89c-37.74,-40.14 -80.3,-54.6 -134.9,-54.6 -30.51,0 -60.22,7.23 -87.52,19.27 -88.32,39.35 -139.71,123.66 -139.71,219.21 0,126.86 97.16,236.86 227.23,236.86 54.6,0 112.41,-21.68 142.12,-69.05l1.61 0 0 54.6 97.96 0zm-98.76 -223.22c0,73.07 -56.21,139.71 -131.69,139.71 -77.88,0 -131.68,-69.05 -131.68,-142.92 0,-70.66 59.42,-136.5 131.68,-136.5 75.48,0 131.69,66.65 131.69,139.71l0 0z"/>
  <path id="41" class="fil2" d="M14355.71 14807.29l0 -445.63 -97.96 0 0 56.2 -1.6 0c-4.02,-6.42 -11.24,-13.65 -16.06,-18.46 -36.13,-32.92 -82.7,-53 -131.68,-53 -131.69,0 -223.22,107.6 -223.22,235.26 0,126.87 82.7,240.08 216.79,240.08 54.6,0 120.44,-28.1 155.77,-69.85l0 55.4 97.96 0zm-101.17 -224.02c0,76.28 -50.58,140.51 -130.07,140.51 -76.28,0 -132.49,-62.63 -132.49,-137.3 0,-76.28 52.99,-142.12 132.49,-142.12 78.68,0 130.07,62.63 130.07,138.91l0 0z"/>
  <path id="42" class="fil2" d="M14889.67 14807.29l0 -594.18 -106.79 0 0 187.89c-37.74,-40.14 -80.3,-54.6 -134.9,-54.6 -30.51,0 -60.22,7.23 -87.52,19.27 -88.32,39.35 -139.71,123.66 -139.71,219.21 0,126.86 97.16,236.86 227.23,236.86 54.6,0 112.41,-21.68 142.12,-69.05l1.61 0 0 54.6 97.96 0zm-98.76 -223.22c0,73.07 -56.21,139.71 -131.69,139.71 -77.88,0 -131.68,-69.05 -131.68,-142.92 0,-70.66 59.42,-136.5 131.68,-136.5 75.48,0 131.69,66.65 131.69,139.71l0 0z"/>
  <path id="43" class="fil2" d="M15413.18 14578.45c0,-129.27 -100.36,-232.05 -230.44,-232.05 -134.89,0 -234.46,105.99 -234.46,239.28 0,132.48 101.97,236.06 235.26,236.06 94.75,0 186.28,-64.23 215.19,-154.96l-112.41 0c-21.68,39.34 -59.42,57 -102.78,57 -44.16,0 -84.31,-22.48 -108.39,-59.41 -6.43,-9.64 -12.05,-20.08 -14.46,-32.12l346.07 0c4.01,-17.67 6.42,-36.13 6.42,-53.8zm-109.2 -32.12l-246.5 0c15.26,-63.43 61.02,-101.97 126.06,-101.97 65.04,0 110.01,37.74 120.44,101.97z"/>
 </g>
</svg>
